# xmcd CD database file generated by OrangeCD 5.2
#
# Track frame offsets:
#	150
#	15061
#	30469
#	49487
#	63013
#	77752
#	96060
#	114320
#	131153
#	147093
#	161125
#	176643
#
# Disc length: 2519 seconds
#
# Revision: 0
# Processed by: cddbd v1.5.1PL0 Copyright (c) Steve Scherf et al.
# Submitted via: OrangeCD 5.2
#
DISCID=9209d50c
DTITLE=Various Artist - Country and Western Line Dancing For Cowgirls and Cowb
DTITLE=oys
DYEAR=1996
DGENRE=Country
TTITLE0=Walking Away A Winner
TTITLE1=The City Put The Country Back In Me
TTITLE2=Take Some
TTITLE3=I Wanna Go Too Far
TTITLE4=Fast As You
TTITLE5=South's Gonna Do It Again
TTITLE6=I'm So Miserable Without You
TTITLE7=Shut Up And Kiss Me
TTITLE8=Wher'm I Gonna Live When I Get Home
TTITLE9=A Heartache Tonight
TTITLE10=Redneck Girl
TTITLE11=Gulf Of Mexico
EXTD=
EXTT0=
EXTT1=
EXTT2=
EXTT3=
EXTT4=
EXTT5=
EXTT6=
EXTT7=
EXTT8=
EXTT9=
EXTT10=
EXTT11=
PLAYORDER=
